<?xml version="1.0" standalone="no"?>
<!DOCTYPE svg PUBLIC "-//W3C//DTD SVG 20010904//EN"
 "http://www.w3.org/TR/2001/REC-SVG-20010904/DTD/svg10.dtd">
<svg version="1.0" xmlns="http://www.w3.org/2000/svg"
 width="1134.000000pt" height="1134.000000pt" viewBox="0 0 1134.000000 1134.000000"
 preserveAspectRatio="xMidYMid meet">

<g transform="translate(0.000000,1134.000000) scale(0.100000,-0.100000)"
fill="#000000" stroke="none">
<path d="M5420 11150 c-1229 -60 -2359 -505 -3300 -1298 -161 -136 -496 -472
-631 -632 -760 -901 -1194 -1959 -1290 -3140 -15 -185 -15 -632 1 -820 80
-1006 410 -1929 980 -2739 203 -289 396 -515 653 -767 538 -528 1164 -933
1856 -1201 1247 -482 2650 -491 3902 -22 1698 636 2985 2085 3408 3839 108
445 153 832 153 1300 1 277 -10 453 -42 705 -269 2109 -1753 3882 -3790 4527
-601 190 -1278 278 -1900 248z m630 -1800 c41 -5 113 -14 160 -20 47 -5 103
-14 125 -19 22 -5 67 -15 100 -21 33 -7 103 -24 155 -37 52 -14 109 -29 125
-33 40 -10 232 -75 270 -90 17 -7 44 -19 62 -26 17 -8 34 -14 37 -14 16 0 294
-135 416 -202 99 -56 400 -257 430 -288 3 -3 39 -32 80 -65 203 -162 436 -403
616 -640 166 -217 375 -579 455 -789 11 -28 23 -60 28 -71 66 -155 146 -427
190 -640 20 -96 29 -162 52 -360 15 -122 6 -750 -11 -827 l-13 -58 -482 0
c-265 0 -484 2 -487 5 -2 3 1 35 8 72 35 196 47 572 24 736 -43 299 -105 550
-177 717 -8 19 -19 44 -23 55 -56 138 -205 405 -293 525 -90 122 -211 261
-328 375 -106 103 -165 153 -339 283 -86 64 -340 205 -470 261 -30 12 -68 29
-85 36 -68 29 -264 90 -380 118 -328 80 -752 90 -1110 26 -123 -22 -362 -86
-440 -118 -11 -5 -40 -17 -65 -26 -265 -104 -560 -280 -769 -458 -69 -59 -341
-338 -341 -350 0 -7 142 -154 315 -327 173 -173 315 -318 315 -322 0 -5 -447
-7 -992 -6 l-993 3 -3 978 c-1 538 1 985 6 993 5 10 96 -75 332 -311 l325
-325 135 138 c143 147 227 226 329 307 35 28 68 55 74 60 25 23 225 163 291
204 181 113 480 267 576 296 14 4 30 11 35 15 11 9 273 99 320 110 17 4 73 19
125 33 52 13 122 30 155 37 33 6 78 16 100 21 38 9 135 22 275 39 93 10 671
11 760 0z m-3066 -3195 c-1 -16 -7 -68 -14 -115 -18 -125 -25 -504 -10 -635
25 -234 91 -524 150 -660 5 -11 12 -31 16 -45 19 -70 127 -289 212 -430 118
-198 230 -338 412 -520 224 -225 418 -368 683 -503 309 -158 539 -227 954
-287 94 -13 476 -13 578 1 297 39 571 110 770 198 243 109 467 242 643 384 84
67 342 315 342 329 0 4 -133 141 -296 304 -176 176 -292 300 -287 305 5 5 418
8 994 7 l984 -3 3 -992 c1 -606 -2 -993 -7 -993 -5 0 -164 155 -354 344 l-344
345 -140 -137 c-295 -291 -601 -510 -958 -686 -130 -64 -211 -100 -245 -111
-14 -4 -30 -11 -35 -15 -17 -14 -304 -107 -425 -139 -206 -53 -304 -71 -575
-102 -55 -7 -221 -9 -430 -6 -281 4 -362 9 -465 26 -287 48 -383 71 -630 151
-110 36 -134 45 -207 76 -17 8 -34 14 -37 14 -16 0 -302 139 -411 200 -125 69
-362 229 -450 301 -223 185 -319 273 -434 400 -268 294 -463 578 -620 904 -54
111 -87 186 -96 215 -4 14 -11 30 -15 35 -22 29 -145 427 -170 550 -4 22 -15
74 -24 115 -15 73 -27 158 -46 325 -12 105 -12 637 -1 745 5 47 14 97 20 112
l10 28 478 -3 478 -2 -1 -30z"/>
</g>
</svg>
